<svg width="766" height="795" viewBox="0 0 766 795" fill="none" xmlns="http://www.w3.org/2000/svg">
<g opacity="0.06">
<path d="M-17.87 540.424L-31.4034 526.153C-112.469 442.289 -141.448 364.173 -111.305 311.964C-81.1625 259.756 1.0928 245.595 114.139 274.066C159.118 285.528 202.943 301.119 245.057 320.639L283.159 338.038L245.034 355.476C219.405 367.215 193.722 380.426 168.614 394.942C143.506 409.458 119.087 425.079 96.1279 441.544C60.1165 466.841 26.5241 495.415 -4.22017 526.899L-17.87 540.424ZM190.903 338.553C162.918 327.317 134.199 318.006 104.946 310.685C12.5516 287.68 -57.5479 295.502 -78.1153 331.126C-97.2657 364.296 -73.8667 422.031 -17.6015 485.385C10.9429 457.882 41.5288 432.578 73.8943 409.69C97.6727 392.726 123.207 376.245 149.335 361.344C163.142 353.218 176.948 345.709 190.903 338.553Z" fill="#46619E"/>
<path d="M340.285 747.205L345.807 728.14C357.675 685.802 365.586 642.449 369.439 598.639C372.154 570.8 373.484 541.986 373.573 512.72C373.661 483.453 371.913 455.069 369.279 427.145L365.3 385.463L399.473 409.784C437.442 436.494 472.868 466.643 505.301 499.849C586.009 583.622 615.273 661.802 585.256 713.793C555.24 765.783 472.491 780.087 359.73 751.985L340.285 747.205ZM410.457 465.842C411.283 481.42 411.653 497.175 411.709 513.014C411.864 543.393 410.329 573.326 407.506 602.426C403.891 641.764 397.232 680.758 387.587 719.058C470.713 736.585 532.526 727.59 551.415 694.873C571.834 659.506 543.546 594.959 477.505 526.541C456.563 504.809 434.161 484.529 410.457 465.842Z" fill="#46619E"/>
<path d="M237.344 896.338C184.672 896.153 137.858 832.202 109.183 734.222C153.019 723.209 195.72 708.187 236.745 689.347C277.852 708.42 320.608 723.696 364.476 734.982C336.532 832.701 290.054 896.456 237.344 896.338Z" fill="#FFA631"/>
<path d="M109.183 734.222C10.0536 758.414 -68.4753 749.999 -95.3068 704.282C-122.138 658.565 -89.5654 586.782 -19.203 513.464C12.4929 545.792 47.0806 575.171 84.1254 601.232C88.3658 646.211 96.7537 690.73 109.183 734.222Z" fill="#FFA631"/>
<path d="M61.7289 464.954L65.8057 423.067C70.0057 376.886 78.4728 331.183 91.0982 286.545C123.327 174.82 176.502 110.67 236.809 110.538C297.115 110.406 349.896 174.325 382.306 286.207L387.777 305.292L368.513 310.097C325.935 321.024 284.446 335.872 244.578 354.452C218.996 366.227 193.358 379.473 168.291 394.022C143.224 408.571 118.843 424.224 95.9164 440.717L61.7289 464.954ZM263.093 156.505C255.145 151.67 246.061 149.019 236.754 148.819C195.968 148.895 154.165 205.72 127.773 297.102C119.43 326.233 113.035 355.883 108.631 385.856C121.755 377.329 135.199 369.165 149.2 361.41C175.531 346.352 202.102 332.406 228.738 320.179C264.678 303.558 301.815 289.682 339.83 278.672C319.471 216.484 291.996 173.192 263.093 156.505Z" fill="#46619E"/>
<path d="M192.003 902.056C150.764 878.247 115.559 821.824 91.8174 739.276L86.3183 720.214L105.576 715.446C148.116 704.58 189.56 689.804 229.379 671.306L237.368 667.71L245.268 671.3C285.109 689.782 326.566 704.559 369.114 715.443L388.414 720.231L382.86 739.177C350.755 850.734 297.673 914.7 237.405 914.678C221.415 914.602 205.738 910.244 192.003 902.056ZM134.207 747.333C160.622 827.542 199.255 876.501 237.301 876.49C275.241 876.507 314.036 827.504 340.389 747.312C305.152 737.241 270.683 724.655 237.248 709.651C203.84 724.645 169.406 737.238 134.207 747.333Z" fill="#46619E"/>
<path fill-rule="evenodd" clip-rule="evenodd" d="M-18.445 485.331L-4.65375 499.458C25.9776 530.835 59.4244 559.33 95.2662 584.585L102.481 589.668L103.276 598.468C107.231 642.262 115.211 685.592 127.114 727.908L108.734 733.111L113.309 751.658C62.5502 764.269 15.7489 768.856 -22.655 763.766C-60.8457 758.704 -93.8475 743.515 -111.294 713.545C-128.819 683.438 -125.301 647.144 -110.52 611.536C-95.6464 575.706 -68.2073 537.383 -32.1076 499.622L-18.445 485.331ZM85.176 718.92C76.1931 683.38 69.8124 647.222 66.0869 610.735C36.4629 589.34 8.43683 565.821 -17.7718 540.367C-45.0208 570.992 -64.5065 600.258 -75.2571 626.156C-87.7672 656.293 -87.3194 678.758 -78.2898 694.27C-69.1811 709.918 -49.8208 721.605 -17.5878 725.877C10.1368 729.552 45.1067 727.331 85.176 718.92Z" fill="#46619E"/>
<path d="M366.082 640.672L370.056 598.942C372.758 571.183 374.081 542.45 374.164 513.266C374.248 484.083 372.5 455.779 369.869 427.933C365.924 384.279 357.963 341.072 346.088 298.861L340.575 279.829L359.814 275.088C472.362 247.353 554.212 261.327 584.42 313.547C614.629 365.766 585.907 443.483 505.383 526.863C473.147 559.86 437.926 589.808 400.168 616.328L366.082 640.672ZM388.025 307.84C397.696 346.174 404.438 385.182 408.192 424.525C410.923 453.573 412.4 483.569 412.465 513.719C412.491 529.466 412.234 545.195 411.693 560.908C435.286 542.34 457.624 522.235 478.56 500.724C544.165 432.943 572.623 368.369 551.962 332.932C532.364 299.781 470.619 290.723 388.025 307.84Z" fill="#46619E"/>
<path d="M350.824 711.579C311.549 701.581 273.28 687.987 236.502 670.969C199.716 688.02 161.454 701.675 122.193 711.764C111.2 672.726 103.871 632.742 100.302 592.334C67.1843 568.99 36.2666 542.669 7.93346 513.7C36.2189 484.702 67.1227 458.383 100.25 435.079C120.823 420.414 143.095 406.021 166.549 392.489C190.004 378.956 213.661 366.603 236.577 356.298C273.417 339.184 311.74 325.475 351.068 315.342C361.936 354.393 369.241 394.354 372.892 434.734C375.273 459.998 376.557 486.397 376.498 513.437C376.439 540.478 375.062 567.199 372.516 592.272C368.955 632.619 361.694 672.556 350.824 711.579Z" fill="#61DAFB"/>
<path d="M200.513 576.033C235.031 595.961 279.168 584.135 299.096 549.618C319.025 515.1 307.198 470.963 272.681 451.035C238.164 431.106 194.027 442.933 174.098 477.45C154.17 511.967 165.996 556.104 200.513 576.033Z" fill="#46619E"/>
</g>
</svg>
