<?xml version="1.0" encoding="utf-8"?>
<!-- Generator: Adobe Illustrator 16.0.3, SVG Export Plug-In . SVG Version: 6.00 Build 0)  -->
<!DOCTYPE svg PUBLIC "-//W3C//DTD SVG 1.1//EN" "http://www.w3.org/Graphics/SVG/1.1/DTD/svg11.dtd">
<svg version="1.1" id="Warstwa_1" xmlns="http://www.w3.org/2000/svg" xmlns:xlink="http://www.w3.org/1999/xlink" x="0px" y="0px"
	 width="640px" height="320px" viewBox="0 0 640 320" enable-background="new 0 0 640 320" xml:space="preserve">
<g>
	<g>
		<path fill="#46619E" d="M305.848,157.955c-1.04,0.061-2.082-0.089-3.063-0.44c-0.983-0.35-1.883-0.893-2.652-1.598
			c-0.71-0.786-1.254-1.708-1.603-2.708c-0.347-1.001-0.488-2.063-0.416-3.12v-44.591c-0.072-1.058,0.069-2.118,0.416-3.12
			c0.349-1.002,0.893-1.922,1.603-2.709c0.791-0.715,1.718-1.263,2.726-1.61c1.009-0.347,2.078-0.486,3.141-0.408h20.781
			c6.757,0,11.976,1.645,15.657,4.933c1.862,1.75,3.314,3.886,4.26,6.259c0.943,2.373,1.355,4.924,1.207,7.474
			c0.13,3.99-1.038,7.915-3.333,11.181c-2.419,3.135-5.83,5.358-9.677,6.305c1.655,0.486,3.188,1.315,4.504,2.435
			c1.311,1.119,2.375,2.503,3.115,4.06l4.229,7.619c0.836,1.466,1.256,3.132,1.217,4.82c-0.025,0.734-0.214,1.453-0.541,2.109
			c-0.327,0.656-0.793,1.236-1.363,1.7c-1.425,1.085-3.2,1.613-4.989,1.485c-1.873,0.083-3.731-0.374-5.354-1.314
			c-1.569-1.086-2.835-2.554-3.676-4.267l-7.619-14.114c-0.554-1.114-1.458-2.017-2.57-2.572c-1.13-0.491-2.351-0.731-3.582-0.705
			h-4.647v15.105c0.16,2.118-0.524,4.214-1.905,5.829c-0.792,0.71-1.72,1.252-2.73,1.589
			C307.976,157.921,306.909,158.047,305.848,157.955z M313.62,123.937h10.305c6.133,0,9.2-2.419,9.2-7.257
			c0-4.838-3.067-7.231-9.2-7.181H313.62V123.937z"/>
	</g>
	<g>
		<path fill="#46619E" d="M378.134,158.108c-4.505,0.112-8.979-0.792-13.086-2.648c-3.53-1.635-6.487-4.289-8.495-7.619
			c-2.015-3.493-3.026-7.473-2.934-11.505c-0.079-3.931,0.894-7.81,2.82-11.238c1.838-3.206,4.527-5.842,7.771-7.619
			c3.46-1.869,7.344-2.813,11.276-2.743c3.783-0.102,7.529,0.799,10.855,2.609c3.053,1.73,5.52,4.33,7.087,7.467
			c1.737,3.555,2.594,7.474,2.495,11.429c0,2.19-1.297,3.295-3.81,3.295h-24.191c0.136,1.15,0.506,2.26,1.087,3.262
			c0.578,1.003,1.355,1.876,2.284,2.567c2.19,1.296,4.717,1.913,7.258,1.772c1.419-0.027,2.835-0.174,4.229-0.438
			c1.597-0.262,3.155-0.709,4.647-1.334c0.712-0.331,1.489-0.502,2.276-0.502c0.785,0,1.563,0.171,2.276,0.502
			c0.594,0.298,1.12,0.713,1.55,1.22c0.43,0.508,0.75,1.097,0.945,1.732c0.418,1.331,0.358,2.767-0.173,4.058
			c-0.285,0.715-0.711,1.366-1.254,1.913c-0.545,0.547-1.192,0.979-1.907,1.268c-2.003,0.96-4.122,1.652-6.304,2.057
			C382.623,157.987,380.379,158.152,378.134,158.108z M376.116,124.413c-2.046-0.076-4.037,0.656-5.543,2.038
			c-1.554,1.604-2.52,3.684-2.744,5.905h15.715c0.005-2.173-0.758-4.277-2.152-5.943c-0.692-0.684-1.519-1.215-2.426-1.559
			C378.056,124.508,377.083,124.358,376.116,124.413z"/>
	</g>
	<g>
		<path fill="#46619E" d="M416.819,158.108c-2.928,0.06-5.833-0.545-8.493-1.772c-2.314-1.068-4.29-2.748-5.715-4.857
			c-1.398-2.081-2.124-4.541-2.077-7.048c-0.151-2.597,0.687-5.155,2.342-7.162c2.074-2.043,4.743-3.377,7.619-3.81
			c4.598-0.86,9.271-1.242,13.943-1.143h3.199v-1.143c0.082-0.789-0.015-1.585-0.284-2.332c-0.271-0.746-0.707-1.42-1.276-1.973
			c-1.598-0.994-3.477-1.442-5.352-1.276c-1.55,0.02-3.092,0.18-4.609,0.476c-1.951,0.376-3.861,0.924-5.715,1.638
			c-0.725,0.354-1.518,0.538-2.324,0.538c-0.806,0-1.601-0.184-2.324-0.538c-0.593-0.336-1.112-0.791-1.526-1.333
			c-0.409-0.544-0.711-1.166-0.875-1.829c-0.364-1.389-0.216-2.864,0.421-4.152c0.395-0.743,0.934-1.397,1.59-1.924
			c0.655-0.527,1.408-0.916,2.22-1.142c2.433-0.857,4.938-1.495,7.485-1.905c2.079-0.343,4.18-0.521,6.287-0.534
			c6.933,0,12.057,1.486,15.409,4.477c3.352,2.99,5.027,7.619,5.027,14.095v17.143c0,5.079-2.31,7.619-6.933,7.619
			c-4.382,0-6.724-2.267-7.009-6.762c-0.781,2.01-2.191,3.714-4.021,4.857C421.717,157.582,419.282,158.204,416.819,158.108z
			 M420.286,148.317c1.957,0.052,3.854-0.673,5.275-2.018c0.719-0.687,1.28-1.517,1.648-2.437c0.372-0.919,0.543-1.906,0.506-2.897
			v-1.505h-3.199c-2.485-0.139-4.971,0.217-7.316,1.048c-0.686,0.243-1.281,0.695-1.698,1.292c-0.416,0.598-0.636,1.312-0.625,2.041
			c-0.011,0.605,0.106,1.205,0.347,1.76c0.237,0.556,0.595,1.053,1.045,1.459C417.399,147.976,418.836,148.425,420.286,148.317z"/>
	</g>
	<g>
		<path fill="#46619E" d="M471.544,158.108c-4.219,0.109-8.403-0.786-12.21-2.61c-3.385-1.686-6.195-4.337-8.076-7.619
			c-1.979-3.553-2.965-7.573-2.857-11.638c-0.113-4.06,0.872-8.075,2.857-11.62c1.899-3.219,4.71-5.803,8.076-7.428
			c3.815-1.792,7.997-2.672,12.21-2.572c1.723,0.009,3.443,0.163,5.142,0.458c1.927,0.34,3.802,0.922,5.582,1.733
			c1.196,0.431,2.189,1.294,2.781,2.42c0.553,1.02,0.804,2.175,0.724,3.333c-0.08,1.134-0.434,2.231-1.028,3.199
			c-0.544,0.919-1.414,1.599-2.438,1.905c-0.584,0.166-1.194,0.213-1.795,0.141c-0.603-0.072-1.183-0.261-1.709-0.559
			c-1.794-0.826-3.743-1.255-5.715-1.257c-1.283-0.079-2.568,0.122-3.765,0.589c-1.198,0.467-2.28,1.189-3.17,2.116
			c-1.752,2.137-2.624,4.861-2.438,7.619c-0.181,2.786,0.69,5.539,2.438,7.714c0.89,0.947,1.978,1.686,3.187,2.163
			c1.207,0.478,2.506,0.682,3.804,0.599c1.976,0.018,3.929-0.412,5.715-1.257c0.528-0.295,1.112-0.481,1.715-0.547
			c0.601-0.065,1.211-0.008,1.789,0.167c0.979,0.35,1.813,1.021,2.362,1.905c0.6,0.95,0.947,2.039,1.009,3.161
			c0.097,1.156-0.149,2.315-0.703,3.333c-0.635,1.107-1.661,1.937-2.876,2.324c-1.756,0.792-3.598,1.373-5.487,1.733
			C474.978,157.926,473.263,158.092,471.544,158.108z"/>
	</g>
	<g>
		<path fill="#46619E" d="M513.334,158.108c-6.304,0-10.972-1.447-14.019-4.381c-3.047-2.933-4.553-7.352-4.553-13.333v-13.695
			h-2.876c-3.81,0-5.715-1.905-5.715-5.582c0-3.676,1.905-5.485,5.715-5.485h2.876v-5.238c-0.086-1.032,0.037-2.071,0.364-3.053
			c0.327-0.983,0.852-1.888,1.54-2.661c0.755-0.67,1.635-1.184,2.591-1.51c0.955-0.328,1.965-0.461,2.971-0.395
			c5.004,0,7.545,2.539,7.619,7.619v5.238h6.916c3.81,0,5.715,1.905,5.715,5.485c0,3.581-1.905,5.582-5.715,5.582h-6.953v13.333
			c0,4.063,2.058,6.088,6.172,6.076c0.763,0.006,1.523-0.078,2.266-0.248c0.67-0.16,1.354-0.243,2.039-0.248
			c0.401-0.043,0.807,0.007,1.188,0.146c0.38,0.139,0.722,0.363,1.003,0.654c0.722,1.208,1.016,2.624,0.837,4.02
			c0.044,1.453-0.212,2.9-0.763,4.248c-0.249,0.579-0.616,1.101-1.079,1.531c-0.461,0.43-1.01,0.758-1.607,0.964
			c-1.045,0.346-2.124,0.589-3.218,0.724C515.551,158.042,514.442,158.112,513.334,158.108z"/>
	</g>
	<g>
		<path fill="#46619E" d="M320.21,226.299c-3.562-0.009-7.114-0.36-10.609-1.049c-3.233-0.577-6.374-1.589-9.333-3.01
			c-1.297-0.571-2.372-1.555-3.055-2.798c-0.687-1.242-0.943-2.675-0.736-4.077c0.158-1.289,0.658-2.511,1.447-3.542
			c0.783-1.028,1.88-1.771,3.124-2.114c1.479-0.339,3.031-0.144,4.381,0.552c2.307,1.126,4.754,1.938,7.276,2.419
			c2.507,0.515,5.059,0.784,7.619,0.8c2.688,0.219,5.39-0.294,7.81-1.484c0.659-0.367,1.213-0.897,1.604-1.542
			c0.391-0.646,0.604-1.383,0.625-2.136c0.008-0.608-0.128-1.207-0.401-1.751c-0.273-0.543-0.668-1.016-1.159-1.372
			c-1.688-1.038-3.567-1.725-5.524-2.021l-9.887-2.113c-10.705-2.31-16.051-7.911-16.038-16.801
			c-0.072-3.66,1.036-7.247,3.162-10.229c2.261-3.03,5.313-5.383,8.819-6.799c4.189-1.678,8.67-2.494,13.181-2.401
			c2.998,0.01,5.985,0.335,8.914,0.973c2.741,0.547,5.379,1.533,7.811,2.913c0.757,0.361,1.43,0.874,1.98,1.507
			s0.966,1.371,1.219,2.169c0.459,1.48,0.398,3.073-0.171,4.517c-0.263,0.703-0.664,1.347-1.178,1.897
			c-0.514,0.549-1.129,0.991-1.812,1.302c-0.882,0.331-1.819,0.475-2.761,0.419c-0.938-0.057-1.854-0.31-2.689-0.742
			c-1.79-0.765-3.661-1.321-5.581-1.658c-1.947-0.358-3.923-0.543-5.903-0.552c-2.528-0.156-5.048,0.42-7.258,1.657
			c-0.762,0.422-1.399,1.04-1.844,1.789c-0.445,0.75-0.684,1.605-0.689,2.477c-0.011,0.589,0.12,1.172,0.381,1.699
			c0.262,0.527,0.647,0.982,1.124,1.328c1.594,1.074,3.388,1.813,5.276,2.173l9.811,2.113c10.855,2.299,16.285,7.761,16.285,16.382
			c0.078,3.607-1.011,7.142-3.104,10.076c-2.247,2.999-5.29,5.31-8.782,6.667C329.301,225.6,324.766,226.403,320.21,226.299z"/>
	</g>
	<g>
		<path fill="#46619E" d="M373.144,226.299c-6.349,0-11.023-1.462-14.018-4.382c-2.999-2.921-4.517-7.364-4.554-13.334v-13.694
			h-2.857c-3.81,0-5.714-1.904-5.714-5.58s1.904-5.487,5.714-5.487h2.876v-5.238c-0.088-1.03,0.037-2.07,0.364-3.053
			c0.327-0.981,0.852-1.888,1.54-2.661c0.757-0.672,1.641-1.188,2.599-1.515s1.974-0.457,2.982-0.391
			c5.017,0,7.519,2.541,7.505,7.619v5.238h6.896c3.81,0,5.715,1.904,5.715,5.487c0,3.581-1.905,5.58-5.715,5.58h-6.935v13.334
			c0,4.063,2.058,6.09,6.172,6.075c0.771,0.005,1.537-0.078,2.286-0.246c0.66-0.161,1.34-0.245,2.019-0.249
			c0.401-0.045,0.811,0.006,1.19,0.146c0.38,0.138,0.722,0.362,1.001,0.654c0.729,1.198,1.032,2.608,0.857,4.001
			c0.039,1.46-0.222,2.911-0.761,4.266c-0.261,0.578-0.633,1.098-1.098,1.525c-0.465,0.432-1.012,0.759-1.607,0.971
			c-1.051,0.339-2.128,0.58-3.22,0.724C375.309,226.23,374.227,226.299,373.144,226.299z"/>
	</g>
	<g>
		<path fill="#46619E" d="M401.771,226.299c-2.922,0.06-5.818-0.547-8.475-1.771c-2.307-1.079-4.28-2.755-5.714-4.858
			c-1.381-2.088-2.099-4.545-2.058-7.047c-0.134-2.597,0.716-5.148,2.381-7.143c2.072-2.046,4.74-3.378,7.619-3.81
			c4.591-0.859,9.256-1.242,13.925-1.144h3.218v-1.163c0.082-0.788-0.017-1.585-0.286-2.331c-0.271-0.745-0.707-1.419-1.276-1.973
			c-1.602-1.003-3.489-1.451-5.371-1.276c-1.543,0.011-3.079,0.171-4.59,0.476c-1.917,0.38-3.798,0.927-5.619,1.64
			c-0.724,0.353-1.518,0.537-2.325,0.537c-0.804,0-1.6-0.185-2.321-0.537c-0.596-0.341-1.116-0.799-1.527-1.346
			c-0.413-0.547-0.709-1.172-0.874-1.837c-0.374-1.381-0.222-2.854,0.419-4.134c0.397-0.74,0.94-1.396,1.592-1.927
			c0.656-0.53,1.41-0.923,2.218-1.157c2.433-0.859,4.94-1.495,7.486-1.904c2.078-0.351,4.18-0.534,6.285-0.553
			c6.914,0,12.058,1.505,15.41,4.476c3.352,2.971,5.029,7.619,5.029,14.114v17.143c0,5.067-2.325,7.619-6.935,7.619
			s-6.723-2.248-7.009-6.742c-0.814,2.005-2.259,3.69-4.114,4.799C406.729,225.754,404.266,226.397,401.771,226.299z
			 M405.164,216.508c1.956,0.04,3.852-0.69,5.275-2.037c0.73-0.676,1.31-1.498,1.692-2.416c0.383-0.916,0.565-1.905,0.535-2.898
			v-1.525h-3.218c-2.479-0.132-4.959,0.23-7.295,1.067c-0.69,0.24-1.284,0.692-1.702,1.291c-0.417,0.6-0.637,1.313-0.623,2.043
			c-0.019,0.603,0.097,1.201,0.338,1.756c0.238,0.552,0.6,1.045,1.054,1.443C402.329,216.136,403.735,216.591,405.164,216.508z"/>
	</g>
	<g>
		<path fill="#46619E" d="M442.991,226.128c-5.08,0-7.619-2.541-7.619-7.619v-27.905c0-5.004,2.452-7.543,7.352-7.619
			c0.979-0.065,1.96,0.07,2.883,0.397c0.923,0.328,1.771,0.841,2.489,1.507c0.673,0.758,1.187,1.641,1.514,2.599
			s0.462,1.974,0.391,2.982v0.249c0.919-2.344,2.545-4.34,4.648-5.715c2.275-1.372,4.887-2.072,7.543-2.02
			c0.666-0.078,1.341-0.006,1.978,0.208c0.634,0.214,1.215,0.565,1.698,1.03c0.989,1.418,1.454,3.135,1.315,4.857
			c0.093,1.694-0.355,3.376-1.276,4.799c-0.603,0.675-1.343,1.215-2.171,1.579s-1.727,0.547-2.63,0.536l-1.905,0.171
			c-2.392,0.008-4.704,0.859-6.532,2.399c-0.724,0.837-1.274,1.807-1.622,2.855c-0.347,1.051-0.48,2.158-0.398,3.261v13.847
			C450.61,223.595,448.059,226.128,442.991,226.128z"/>
	</g>
	<g>
		<path fill="#46619E" d="M496.19,226.299c-6.347,0-11.022-1.462-14.018-4.382c-3.047-2.932-4.554-7.352-4.554-13.334v-13.694
			h-2.876c-3.81,0-5.714-1.904-5.714-5.58s1.904-5.487,5.714-5.487h2.876v-5.238c-0.085-1.03,0.037-2.07,0.365-3.053
			c0.327-0.981,0.852-1.888,1.54-2.661c0.755-0.67,1.635-1.184,2.591-1.511c0.954-0.325,1.965-0.46,2.971-0.395
			c5.004,0,7.545,2.541,7.619,7.619v5.238h6.916c3.81,0,5.714,1.904,5.714,5.487c0,3.581-1.904,5.58-5.714,5.58h-6.953v13.334
			c0,4.063,2.057,6.09,6.172,6.075c0.763,0.007,1.523-0.076,2.266-0.246c0.67-0.16,1.354-0.245,2.038-0.249
			c0.402-0.041,0.808,0.008,1.189,0.146c0.379,0.14,0.722,0.363,1.002,0.653c0.711,1.205,1.005,2.611,0.837,4.001
			c0.049,1.46-0.212,2.913-0.763,4.266c-0.256,0.58-0.628,1.101-1.092,1.529c-0.465,0.43-1.014,0.759-1.612,0.967
			c-1.042,0.341-2.111,0.582-3.199,0.724C498.408,226.232,497.3,226.303,496.19,226.299z"/>
	</g>
	<g>
		<path fill="#46619E" d="M532.668,226.299c-4.519,0.117-9.003-0.788-13.125-2.648c-3.523-1.641-6.48-4.293-8.493-7.619
			c-1.924-3.497-2.946-7.418-2.969-11.41s0.95-7.928,2.835-11.447c1.841-3.203,4.531-5.841,7.771-7.619
			c3.452-1.797,7.309-2.682,11.199-2.57c3.786-0.095,7.534,0.811,10.857,2.628c3.069,1.688,5.564,4.254,7.162,7.372
			c1.737,3.553,2.593,7.474,2.496,11.429c0,2.21-1.297,3.296-3.81,3.296h-24.211c0.145,1.137,0.517,2.232,1.097,3.222
			c0.581,0.987,1.354,1.849,2.275,2.53c2.189,1.294,4.715,1.912,7.256,1.771c1.42-0.019,2.835-0.16,4.23-0.419
			c1.596-0.258,3.158-0.712,4.646-1.352c0.715-0.326,1.492-0.495,2.277-0.495c0.784,0,1.563,0.169,2.276,0.495
			c0.593,0.297,1.12,0.714,1.55,1.22c0.43,0.508,0.749,1.098,0.944,1.731c0.419,1.33,0.359,2.767-0.171,4.058
			c-0.288,0.714-0.716,1.361-1.26,1.904c-0.543,0.543-1.19,0.971-1.902,1.258c-1.998,0.975-4.118,1.674-6.304,2.076
			C537.11,226.109,534.891,226.307,532.668,226.299z M530.573,192.603c-2.038-0.07-4.021,0.661-5.524,2.039
			c-1.551,1.604-2.519,3.685-2.742,5.904h15.715c0-2.179-0.761-4.288-2.154-5.962c-0.695-0.681-1.527-1.205-2.437-1.548
			C532.518,192.694,531.545,192.549,530.573,192.603z"/>
	</g>
	<g>
		<path fill="#46619E" d="M564.518,226.128c-5.082,0-7.619-2.541-7.619-7.619v-27.905c0-5.004,2.449-7.543,7.351-7.619
			c0.977-0.065,1.957,0.07,2.882,0.397c0.924,0.328,1.772,0.841,2.49,1.507c0.672,0.758,1.187,1.641,1.515,2.599
			c0.327,0.958,0.457,1.974,0.391,2.982v0.249c0.917-2.344,2.54-4.34,4.646-5.715c2.276-1.452,4.92-2.221,7.619-2.209
			c0.666-0.078,1.341-0.008,1.978,0.208c0.634,0.212,1.214,0.565,1.697,1.028c0.99,1.418,1.455,3.135,1.315,4.857
			c0.093,1.696-0.355,3.376-1.276,4.801c-0.601,0.675-1.343,1.213-2.17,1.579c-0.828,0.364-1.725,0.547-2.631,0.535l-1.904,0.172
			c-2.398,0.039-4.704,0.922-6.515,2.494c-0.722,0.835-1.272,1.807-1.62,2.855s-0.481,2.157-0.397,3.259v13.847
			C572.166,223.561,569.582,226.128,564.518,226.128z"/>
	</g>
	<g>
		<path fill="#46619E" d="M101.161,199.613l-4.686-1.391c-27.866-7.98-43.81-21.2-43.81-36.191c0-14.99,15.943-28.266,43.81-36.19
			c11.104-3.124,22.473-5.215,33.962-6.248l10.362-0.989l-6.038,8.495c-4.057,5.714-7.943,11.752-11.543,18
			c-3.6,6.248-6.914,12.648-9.81,19.046c-4.607,9.926-8.286,20.257-10.99,30.859L101.161,199.613z M121.009,130.185
			c-7.419,1.059-14.756,2.625-21.961,4.686c-22.743,6.533-36.857,16.933-36.857,27.161c0,9.524,12.21,19.048,32.19,25.696
			c2.726-9.472,6.165-18.724,10.286-27.677c3.01-6.609,6.457-13.333,10.229-19.791C116.857,136.793,118.895,133.46,121.009,130.185z
			"/>
	</g>
	<g>
		<path fill="#46619E" d="M204.077,199.613l-1.181-4.801c-2.708-10.61-6.394-20.946-11.01-30.876
			c-2.875-6.343-6.171-12.724-9.79-19.048c-3.62-6.323-7.524-12.229-11.563-17.924l-6.038-8.496l10.381,0.991
			c11.495,1.033,22.87,3.124,33.98,6.248c27.791,8.019,43.81,21.238,43.81,36.189c0,14.954-16.038,28.345-43.81,36.325
			L204.077,199.613z M184.209,130.185c2.114,3.257,4.153,6.609,6.133,10.019c3.81,6.533,7.201,13.181,10.21,19.81
			c4.112,8.935,7.525,18.176,10.209,27.639c20.077-6.572,32.267-16.211,32.267-25.62c0-10.171-14.115-20.571-36.838-27.104
			C198.98,132.847,191.636,131.262,184.209,130.185z"/>
	</g>
	<g>
		<path fill="#FFA631" d="M200.209,244.413c-11.334,6.532-29.315-1.447-47.619-19.048c8.048-7.852,15.354-16.427,21.829-25.619
			c11.191-1.007,22.267-3.042,33.086-6.077C213.619,218.28,211.543,237.861,200.209,244.413z"/>
	</g>
	<g>
		<path fill="#FFA631" d="M152.628,225.365c-18.286,17.601-36.191,25.58-47.62,19.048c-11.428-6.533-13.333-26.114-7.314-50.744
			c10.813,3.033,21.882,5.066,33.067,6.077C137.248,208.94,144.568,217.516,152.628,225.365z"/>
	</g>
	<g>
		<path fill="#46619E" d="M109.009,173.46l-4.343-9.523c-4.852-10.463-8.722-21.354-11.562-32.534
			c-6.972-28.057-3.486-48.476,9.524-56s32.381-0.324,53.333,19.733l3.563,3.429l-3.563,3.428
			c-7.833,7.645-14.943,15.998-21.238,24.953c-4.057,5.714-7.943,11.752-11.543,18c-3.6,6.248-6.914,12.647-9.81,19.048
			L109.009,173.46z M114.038,82.031c-2.319-0.053-4.612,0.505-6.648,1.619c-8.8,5.086-10.743,22.514-5.047,45.466
			c1.83,7.309,4.147,14.487,6.934,21.486c1.771-3.466,3.657-6.896,5.714-10.305c3.81-6.514,7.809-12.819,12.038-18.761
			c5.69-8.045,11.981-15.648,18.819-22.744C133.695,87.937,122.361,82.031,114.038,82.031z"/>
	</g>
	<g>
		<path fill="#46619E" d="M191.238,251.44c-11.867,0-26.496-7.79-41.905-22.646l-3.562-3.429l3.562-3.428
			c7.828-7.647,14.93-15.999,21.219-24.954l1.276-1.771l2.152-0.209c10.901-0.977,21.69-2.953,32.229-5.905l4.762-1.371l1.163,4.78
			c6.971,28.077,3.485,48.495-9.524,56.001C199.149,250.484,195.222,251.496,191.238,251.44z M159.486,225.25
			c15.695,14.02,30.133,19.773,38.343,15.029c8.19-4.725,10.458-20.134,6.152-40.724c-8.86,2.216-17.867,3.797-26.953,4.724
			C171.687,211.679,165.824,218.688,159.486,225.25z"/>
	</g>
	<g>
		<path fill="#46619E" d="M114.032,251.44c-4.198,0-8.028-0.975-11.386-2.893c-12.972-7.416-16.463-27.831-9.577-56.01l1.17-4.784
			l4.743,1.33c10.5,2.946,21.335,4.938,32.208,5.918l2.194,0.199l1.27,1.799c6.297,8.929,13.464,17.323,21.298,24.954l3.524,3.432
			l-3.543,3.409C145.198,239.127,129.218,251.44,114.032,251.44z M101.251,199.543c-4.26,20.679-2.018,36.085,6.121,40.735
			c8.239,4.709,22.896-1.2,38.395-15.041c-6.368-6.544-12.277-13.572-17.62-20.958C119.094,203.353,110.076,201.764,101.251,199.543
			z"/>
	</g>
	<g>
		<path fill="#46619E" d="M196.229,173.46l-4.343-9.523c-2.875-6.343-6.171-12.724-9.79-19.048
			c-3.62-6.323-7.524-12.229-11.563-17.924c-6.292-8.951-13.395-17.304-21.218-24.952l-3.562-3.429l3.562-3.428
			c20.838-20.058,40.248-27.257,53.276-19.733c13.028,7.523,16.514,27.923,9.524,56.019c-2.846,11.165-6.717,22.042-11.562,32.496
			L196.229,173.46z M159.486,98.717c6.865,7.085,13.182,14.682,18.895,22.724c4.209,5.943,8.267,12.248,12.038,18.762
			c1.969,3.403,3.874,6.838,5.714,10.305c2.779-6.964,5.096-14.104,6.934-21.372c5.714-22.857,3.81-40.38-5.067-45.467
			C189.638,78.945,175.181,84.698,159.486,98.717z"/>
	</g>
	<g>
		<path fill="#61DAFB" d="M201.885,190.413c-9.71,2.729-19.649,4.558-29.695,5.466c-5.808,8.244-12.355,15.939-19.562,22.991
			c-7.228-7.039-13.783-14.734-19.581-22.991c-10.044-0.908-19.983-2.731-29.696-5.447c2.489-9.758,5.875-19.267,10.115-28.4
			c2.609-5.714,5.619-11.581,8.991-17.409c3.372-5.829,6.933-11.429,10.591-16.495c5.81-8.263,12.365-15.979,19.581-23.048
			c7.202,7.057,13.75,14.751,19.562,22.99c3.657,5.144,7.219,10.667,10.571,16.496c3.353,5.829,6.381,11.752,8.953,17.466
			C195.967,171.161,199.372,180.661,201.885,190.413z"/>
	</g>
	<g>
		<path fill="#46619E" d="M152.61,179.728c9.804,0,17.752-7.949,17.752-17.754c0-9.803-7.948-17.752-17.752-17.752
			c-9.805,0-17.753,7.949-17.753,17.752C134.856,171.778,142.805,179.728,152.61,179.728z"/>
	</g>
</g>
</svg>
